<?xml version="1.0" encoding="UTF-8"?>
<svg id="Layer_2" data-name="Layer 2" xmlns="http://www.w3.org/2000/svg" xmlns:xlink="http://www.w3.org/1999/xlink" viewBox="0 0 50.97 50.97">
  <defs>
    <linearGradient id="linear-gradient" x1="27.07" y1="-48.98" x2="23.87" y2="-100.54" gradientTransform="translate(0 -49.03) scale(1 -1)" gradientUnits="userSpaceOnUse">
      <stop offset=".32" stop-color="#fff"/>
      <stop offset=".6" stop-color="#fcfcfc"/>
      <stop offset=".76" stop-color="#f4f5f5"/>
      <stop offset=".88" stop-color="#e7e8e9"/>
      <stop offset=".98" stop-color="#d4d6d7"/>
      <stop offset="1" stop-color="#d0d3d4"/>
    </linearGradient>
    <linearGradient id="linear-gradient-2" x1="24.34" y1="-98.24" x2="26.69" y2="-50.96" xlink:href="#linear-gradient"/>
    <clipPath id="clippath">
      <rect x="10.37" y="12.6" width="29.47" height="26.07" style="fill: none;"/>
    </clipPath>
  </defs>
  <g id="Layer_1-2" data-name="Layer 1">
    <path d="m8.35,44.35c10.42,9.46,26.54,8.69,36-1.73,9.46-10.42,8.69-26.54-1.73-36C32.2-2.84,16.08-2.07,6.62,8.35c-9.46,10.42-8.69,26.54,1.73,36Z" style="fill: url(#linear-gradient);"/>
    <path d="m26.67,49.5c13.26-.64,23.5-11.9,22.86-25.17C48.9,11.07,37.63.83,24.37,1.47,11.1,2.11.87,13.38,1.51,26.64c.64,13.26,11.9,23.5,25.17,22.86Z" style="fill: url(#linear-gradient-2);"/>
    <g style="clip-path: url(#clippath);">
      <g>
        <path d="m29.27,12.6c-3.75,0-6.8,3.22-6.8,7.17,0,3.95,3.05,7.16,6.8,7.16,3.75,0,6.8-3.22,6.81-7.17,0-3.95-3.05-7.16-6.8-7.16Zm5.52,7.16c0,3.2-2.48,5.81-5.52,5.81-3.04,0-5.51-2.61-5.51-5.81,0-3.2,2.48-5.81,5.52-5.81,3.04,0,5.52,2.61,5.52,5.81Z" style="fill: #4f4f4f;"/>
        <path d="m31.89,18.98h-1.87s0-1.97,0-1.97c0-.43-.33-.79-.75-.79s-.75.35-.75.79v1.97s-1.87,0-1.87,0c-.41,0-.75.35-.75.79,0,.43.33.79.75.79h1.87s0,1.97,0,1.97c0,.43.33.79.75.79s.75-.35.75-.79v-1.97s1.87,0,1.87,0c.41,0,.75-.35.75-.79,0-.43-.33-.79-.75-.79Z" style="fill: #4f4f4f;"/>
        <path d="m38.96,28.26c-1.05-.54-2.23-.73-3.38-.55-.59.09-1.16.28-1.69.57l-3.53,1.79c-.18-1.11-1.09-1.92-2.16-1.92h-3.78c-1.41-1.54-3.35-2.41-5.38-2.42h-2.82s0-1.12,0-1.12c0-.37-.28-.66-.63-.66h-4.61c-.35,0-.63.3-.63.66v11.66c0,.37.28.66.62.66h4.61c.35,0,.63-.3.63-.66v-.94s7.09,3.01,7.09,3.01c.54.21,1.12.32,1.7.33,1.3,0,2.43-.59,3.76-1.29l.15-.08h.03l10.04-6.11c.53-.29.85-.87.84-1.5,0-.62-.34-1.17-.87-1.44h0Zm-27.35,7.35v-10.34s3.35,0,3.35,0v10.34s-3.35,0-3.35,0Zm26.78-5.55l-10.06,6.07-.13.07c-1.78.94-2.86,1.5-4.45.91l-7.52-3.2v-6.87s2.82,0,2.82,0c1.77,0,3.46.8,4.64,2.2.12.14.29.22.47.22h4.08c.46,0,.85.35.92.83.01.2-.04.4-.15.57l-.02.03s-.05.06-.07.09c-.16.17-.37.26-.6.26h-7.29c-.35,0-.63.3-.63.66,0,.37.28.66.63.66h7.26c.56,0,1.09-.24,1.48-.66.04-.05.08-.1.13-.15l4.55-2.31c.42-.21.86-.35,1.32-.42.91-.14,1.83.01,2.66.44.1.05.16.16.16.27,0,.13-.07.26-.19.31v.02h0Z" style="fill: #4f4f4f;"/>
      </g>
    </g>
  </g>
</svg>